<svg width="180" height="132" viewBox="0 0 180 132" fill="none" xmlns="http://www.w3.org/2000/svg">
<path d="M45.6026 128.313L46.5266 3.67453C46.5384 2.08991 48.3005 1.14769 49.6249 2.0179L145.264 64.861C146.475 65.6567 146.464 67.436 145.244 68.217L48.6806 130.013C47.3437 130.868 45.5908 129.9 45.6026 128.313Z" fill="#1D2452"/>
<path d="M109.847 77.6471H106.068C105.445 77.6471 105.134 77.3365 105.134 76.7153V50.0491C105.134 49.4279 105.445 49.1173 106.068 49.1173H116.917C119.229 49.1173 121.022 49.7533 122.297 51.0252C123.572 52.2676 124.209 54.0424 124.209 56.3496V60.6091C124.209 62.9163 123.572 64.7059 122.297 65.9778C121.022 67.2202 119.229 67.8414 116.917 67.8414H111.314C110.959 67.8414 110.781 68.004 110.781 68.3294V76.7153C110.781 77.3365 110.47 77.6471 109.847 77.6471ZM111.27 62.9163H115.983C116.932 62.9163 117.599 62.724 117.984 62.3395C118.369 61.9254 118.562 61.2598 118.562 60.3429V56.6158C118.562 55.6693 118.369 55.0037 117.984 54.6192C117.599 54.2051 116.932 53.998 115.983 53.998H111.27C110.944 53.998 110.781 54.1607 110.781 54.4861V62.4282C110.781 62.7536 110.944 62.9163 111.27 62.9163Z" fill="#E61C44"/>
<path d="M133.203 77.6471H129.423C128.801 77.6471 128.49 77.3365 128.49 76.7153V47.3869C128.49 46.7657 128.801 46.4551 129.423 46.4551H133.203C133.825 46.4551 134.137 46.7657 134.137 47.3869V76.7153C134.137 77.3365 133.825 77.6471 133.203 77.6471Z" fill="#E61C44"/>
<path d="M147.212 77.6471H146.145C143.803 77.6471 141.995 77.0259 140.72 75.7835C139.446 74.5412 138.808 72.7516 138.808 70.4148V62.2508C138.808 59.914 139.446 58.1244 140.72 56.882C141.995 55.6397 143.803 55.0185 146.145 55.0185H156.416C157.068 55.0185 157.394 55.3291 157.394 55.9503V76.7153C157.394 77.3365 157.068 77.6471 156.416 77.6471H152.681C152.059 77.6471 151.747 77.3365 151.747 76.7153V75.2511H151.569C151.243 76.0498 150.665 76.6561 149.835 77.0703C149.005 77.4548 148.131 77.6471 147.212 77.6471ZM151.747 69.3943V60.3872C151.747 60.0619 151.569 59.8992 151.214 59.8992H147.034C146.086 59.8992 145.419 60.1062 145.033 60.5204C144.648 60.9049 144.455 61.5704 144.455 62.517V70.1486C144.455 71.0951 144.648 71.7755 145.033 72.1896C145.419 72.5741 146.086 72.7664 147.034 72.7664H148.679C150.725 72.7664 151.747 71.6424 151.747 69.3943Z" fill="#E61C44"/>
<path d="M165.957 85.1456H163.111C162.518 85.1456 162.222 84.8202 162.222 84.1694V81.1967C162.222 80.5459 162.518 80.2205 163.111 80.2205H164.045C165.912 80.2205 167.172 79.9543 167.824 79.4219C168.506 78.919 169.025 77.9281 169.381 76.4491H167.024C166.461 76.4491 166.09 76.1385 165.912 75.5173L160.71 55.9503C160.532 55.3291 160.755 55.0185 161.377 55.0185H165.334C165.927 55.0185 166.298 55.3291 166.446 55.9503L170.27 72.3227H170.448L174.227 55.9503C174.346 55.3291 174.716 55.0185 175.339 55.0185H179.074C179.815 55.0185 180.111 55.3439 179.963 55.9946L174.538 77.6471C173.886 80.1022 172.878 81.9657 171.515 83.2377C170.151 84.5096 168.299 85.1456 165.957 85.1456Z" fill="#E61C44"/>
<path d="M12.0497 77.647H7.33651C4.99475 77.647 3.18656 77.0259 1.91194 75.7835C0.637313 74.5411 0 72.7516 0 70.4148V56.3495C0 54.0127 0.637313 52.2232 1.91194 50.9808C3.18656 49.7385 4.99475 49.1173 7.33651 49.1173H12.0497C14.3618 49.1173 16.1551 49.7532 17.4298 51.0252C18.7044 52.2675 19.3417 54.0423 19.3417 56.3495V57.6806C19.3417 58.3314 19.0305 58.6568 18.408 58.6568H14.6286C14.0061 58.6568 13.6948 58.3314 13.6948 57.6806V56.6158C13.6948 55.6692 13.5021 55.0037 13.1168 54.6191C12.7314 54.205 12.0645 53.9979 11.1159 53.9979H8.22578C7.30687 53.9979 6.63991 54.205 6.22492 54.6191C5.83956 55.0037 5.64689 55.6692 5.64689 56.6158V70.1485C5.64689 71.0951 5.83956 71.7754 6.22492 72.1895C6.63991 72.5741 7.30687 72.7664 8.22578 72.7664H11.1159C12.0645 72.7664 12.7314 72.5741 13.1168 72.1895C13.5021 71.7754 13.6948 71.0951 13.6948 70.1485V67.3532C13.6948 67.0279 13.5318 66.8652 13.2057 66.8652H10.5379C9.9154 66.8652 9.60416 66.5546 9.60416 65.9334V62.9163C9.60416 62.2951 9.9154 61.9845 10.5379 61.9845H18.319C19.0008 61.9845 19.3417 62.3247 19.3417 63.005V70.4148C19.3417 72.722 18.7044 74.5116 17.4298 75.7835C16.1551 77.0259 14.3618 77.647 12.0497 77.647Z" fill="#DDE3F0"/>
<path d="M32.1882 77.647H31.1211C28.7794 77.647 26.9712 77.0259 25.6965 75.7835C24.4219 74.5411 23.7846 72.7516 23.7846 70.4148V62.2507C23.7846 59.9139 24.4219 58.1243 25.6965 56.882C26.9712 55.6396 28.7794 55.0185 31.1211 55.0185H41.3922C42.0443 55.0185 42.3704 55.329 42.3704 55.9502V76.7153C42.3704 77.3364 42.0443 77.647 41.3922 77.647H37.6573C37.0348 77.647 36.7235 77.3364 36.7235 76.7153V75.2511H36.5457C36.2196 76.0497 35.6416 76.6561 34.8116 77.0702C33.9816 77.4548 33.1071 77.647 32.1882 77.647ZM36.7235 69.3943V60.3872C36.7235 60.0618 36.5457 59.8991 36.19 59.8991H32.0104C31.0618 59.8991 30.3949 60.1062 30.0095 60.5203C29.6242 60.9048 29.4315 61.5704 29.4315 62.5169V70.1485C29.4315 71.0951 29.6242 71.7754 30.0095 72.1895C30.3949 72.5741 31.0618 72.7664 32.0104 72.7664H33.6555C35.7009 72.7664 36.7235 71.6423 36.7235 69.3943Z" fill="#DDE3F0"/>
<path d="M51.9558 77.647H48.1764C47.5539 77.647 47.2427 77.3364 47.2427 76.7153V55.9502C47.2427 55.329 47.5539 55.0185 48.1764 55.0185H51.9558C52.5783 55.0185 52.8896 55.329 52.8896 55.9502V57.4144H53.0674C53.4231 56.7045 54.016 56.1277 54.846 55.684C55.7056 55.2403 56.6838 55.0185 57.7806 55.0185H59.0255C61.6044 55.0185 63.4571 55.965 64.5835 57.8581C65.5913 55.965 67.3254 55.0185 69.7858 55.0185H71.0752C73.3577 55.0185 75.0769 55.6396 76.233 56.882C77.4187 58.1243 78.0115 59.9139 78.0115 62.2507V76.7153C78.0115 77.3364 77.7003 77.647 77.0778 77.647H73.2984C72.6759 77.647 72.3646 77.3364 72.3646 76.7153V62.5169C72.3646 61.5704 72.172 60.9048 71.7866 60.5203C71.4013 60.1062 70.7343 59.8991 69.7858 59.8991H68.6742C66.6288 59.8991 65.6062 61.038 65.6062 63.3156V76.7153C65.6062 77.3364 65.2801 77.647 64.628 77.647H60.893C60.2705 77.647 59.9593 77.3364 59.9593 76.7153V62.5169C59.9593 61.5704 59.7518 60.9048 59.3368 60.5203C58.9514 60.1062 58.2845 59.8991 57.3359 59.8991H55.9575C53.9122 59.8991 52.8896 61.0232 52.8896 63.2712V76.7153C52.8896 77.3364 52.5783 77.647 51.9558 77.647Z" fill="#DDE3F0"/>
<path d="M99.4364 77.647H89.6099C87.2682 77.647 85.46 77.0259 84.1854 75.7835C82.9108 74.5411 82.2734 72.7516 82.2734 70.4148V62.2507C82.2734 59.9139 82.9108 58.1243 84.1854 56.882C85.46 55.6396 87.2682 55.0185 89.6099 55.0185H93.1226C95.4643 55.0185 97.2725 55.6396 98.5471 56.882C99.8218 58.1243 100.459 59.9139 100.459 62.2507V67.8857C100.459 68.5069 100.148 68.8174 99.5254 68.8174H88.365C88.0093 68.8174 87.8314 68.9801 87.8314 69.3055V70.2816C87.8314 71.1986 88.0241 71.8642 88.4094 72.2783C88.8244 72.6628 89.5062 72.8551 90.4548 72.8551H99.4364C100.059 72.8551 100.37 73.1805 100.37 73.8312V76.7596C100.37 77.085 100.296 77.3216 100.148 77.4695C100.029 77.5879 99.7921 77.647 99.4364 77.647ZM88.365 65.046H94.412C94.7381 65.046 94.9011 64.8833 94.9011 64.558V62.4282C94.9011 61.4816 94.7085 60.8161 94.3231 60.4316C93.9378 60.047 93.2708 59.8548 92.3222 59.8548H90.4548C89.5062 59.8548 88.8392 60.047 88.4539 60.4316C88.0686 60.8161 87.8759 61.4816 87.8759 62.4282V64.558C87.8759 64.8833 88.0389 65.046 88.365 65.046Z" fill="#DDE3F0"/>
</svg>
